<svg width="107" height="75" viewBox="0 0 107 75" fill="none" xmlns="http://www.w3.org/2000/svg">
<path d="M25.5 73C13.0781 73 3 62.9219 3 50.5C3 40.6875 9.28125 32.3438 18.0312 29.2656C18.0156 28.8438 18 28.4219 18 28C18 14.1875 29.1875 3 43 3C52.2656 3 60.3438 8.03125 64.6719 15.5312C67.0469 13.9375 69.9219 13 73 13C81.2812 13 88 19.7188 88 28C88 29.9062 87.6406 31.7188 87 33.4062C96.125 35.25 103 43.3281 103 53C103 64.0469 94.0469 73 83 73H25.5ZM37.8438 39.0938C36.375 40.5625 36.375 42.9375 37.8438 44.3906C39.3125 45.8438 41.6875 45.8594 43.1406 44.3906L49.2344 38.2969V59.25C49.2344 61.3281 50.9062 63 52.9844 63C55.0625 63 56.7344 61.3281 56.7344 59.25V38.2969L62.8281 44.3906C64.2969 45.8594 66.6719 45.8594 68.125 44.3906C69.5781 42.9219 69.5938 40.5469 68.125 39.0938L55.625 26.5938C54.1562 25.125 51.7812 25.125 50.3281 26.5938L37.8281 39.0938H37.8438Z" fill="white"/>
</svg>
