<svg width="76" height="76" viewBox="0 0 76 76" fill="none" xmlns="http://www.w3.org/2000/svg">
<path d="M63.3793 33.9375H45.1016C43.4135 33.9375 42.0554 32.5791 42.0554 30.8906V12.6094C42.0554 11.3779 42.7915 10.2607 43.9339 9.79102C45.0763 9.32129 46.3836 9.5752 47.2594 10.4512L52.3366 15.5293L61.6404 6.22363C62.11 5.75391 62.732 5.5 63.3793 5.5C64.0267 5.5 64.6486 5.75391 65.1182 6.22363L69.7765 10.8828C70.2334 11.3398 70.4873 11.9619 70.4873 12.6094C70.4873 13.2568 70.2334 13.8789 69.7638 14.3486L60.46 23.6543L65.5371 28.7324C66.4129 29.6084 66.6668 30.916 66.1971 32.0586C65.7275 33.2012 64.6105 33.9375 63.3793 33.9375ZM63.3793 42.0625C64.6105 42.0625 65.7275 42.7988 66.1971 43.9414C66.6668 45.084 66.4129 46.3916 65.5371 47.2676L60.46 52.3457L69.7765 61.6641C70.2334 62.1211 70.5 62.7432 70.5 63.4033C70.5 64.0635 70.2461 64.6728 69.7765 65.1426L65.1182 69.8018C64.6486 70.2461 64.0267 70.5 63.3793 70.5C62.732 70.5 62.11 70.2461 61.6404 69.7764L52.3366 60.4707L47.2594 65.5488C46.3836 66.4248 45.0763 66.6787 43.9339 66.209C42.7915 65.7393 42.0554 64.6221 42.0554 63.3906V45.1094C42.0554 43.4209 43.4135 42.0625 45.1016 42.0625H63.3793ZM30.8857 42.0625C32.5738 42.0625 33.9319 43.4209 33.9319 45.1094V63.3906C33.9319 64.6221 33.1958 65.7393 32.0534 66.209C30.9111 66.6787 29.6037 66.4248 28.7279 65.5488L23.6508 60.4707L14.3469 69.7764C13.8773 70.2461 13.2553 70.5 12.608 70.5C11.9607 70.5 11.3387 70.2461 10.8691 69.7764L6.22349 65.1299C5.75386 64.6602 5.5 64.0381 5.5 63.3906C5.5 62.7432 5.75386 62.1211 6.22349 61.6514L15.5273 52.3457L10.4502 47.2676C9.5744 46.3916 9.32054 45.084 9.79018 43.9414C10.2598 42.7988 11.3768 42.0625 12.608 42.0625H30.8857ZM12.608 33.9375C11.3768 33.9375 10.2598 33.2012 9.79018 32.0586C9.32054 30.916 9.5744 29.6084 10.4502 28.7324L15.5273 23.6543L6.22349 14.3486C5.75386 13.8789 5.5 13.2568 5.5 12.6094C5.5 11.9619 5.75386 11.3398 6.22349 10.8701L10.8691 6.22363C11.3387 5.75391 11.9607 5.5 12.608 5.5C13.2553 5.5 13.8773 5.75391 14.3469 6.22363L23.6508 15.5293L28.7279 10.4512C29.6037 9.5752 30.9111 9.32129 32.0534 9.79102C33.1958 10.2607 33.9319 11.3779 33.9319 12.6094V30.8906C33.9319 32.5791 32.5738 33.9375 30.8857 33.9375H12.608Z" fill="white"/>
</svg>
