<svg width="75" height="75" viewBox="0 0 75 75" fill="none" xmlns="http://www.w3.org/2000/svg">
<path d="M19.5 7.375C19.5 4.95508 17.5449 3 15.125 3C12.7051 3 10.75 4.95508 10.75 7.375V11.75H6.375C3.95508 11.75 2 13.7051 2 16.125C2 18.5449 3.95508 20.5 6.375 20.5H10.75V55.5C10.75 60.3262 14.6738 64.25 19.5 64.25H50.125V55.5H19.5V7.375ZM54.5 68.625C54.5 71.0449 56.4551 73 58.875 73C61.2949 73 63.25 71.0449 63.25 68.625V64.25H67.625C70.0449 64.25 72 62.2949 72 59.875C72 57.4551 70.0449 55.5 67.625 55.5H63.25V20.5C63.25 15.6738 59.3262 11.75 54.5 11.75H23.875V20.5H54.5V68.625Z" fill="white"/>
</svg>
