<svg width="76" height="75" viewBox="0 0 76 75" fill="none" xmlns="http://www.w3.org/2000/svg">
<g clip-path="url(#clip0_2135_2444)">
<path d="M42.3193 7.375C42.3193 4.95508 40.2246 3 37.6318 3C35.0391 3 32.9443 4.95508 32.9443 7.375V40.5566L22.1924 30.5215C20.3613 28.8125 17.3877 28.8125 15.5566 30.5215C13.7256 32.2305 13.7256 35.0059 15.5566 36.7148L34.3066 54.2148C36.1377 55.9238 39.1113 55.9238 40.9424 54.2148L59.6924 36.7148C61.5234 35.0059 61.5234 32.2305 59.6924 30.5215C57.8613 28.8125 54.8877 28.8125 53.0566 30.5215L42.3193 40.5566V7.375ZM9.50684 51.125C4.33594 51.125 0.131836 55.0488 0.131836 59.875V64.25C0.131836 69.0762 4.33594 73 9.50684 73H65.7568C70.9277 73 75.1318 69.0762 75.1318 64.25V59.875C75.1318 55.0488 70.9277 51.125 65.7568 51.125H50.8887L44.2529 57.3184C40.5908 60.7363 34.6582 60.7363 30.9961 57.3184L24.375 51.125H9.50684ZM63.4131 58.7812C64.3455 58.7812 65.2397 59.127 65.899 59.7423C66.5583 60.3577 66.9287 61.1923 66.9287 62.0625C66.9287 62.9327 66.5583 63.7673 65.899 64.3827C65.2397 64.998 64.3455 65.3438 63.4131 65.3438C62.4807 65.3438 61.5865 64.998 60.9272 64.3827C60.2679 63.7673 59.8975 62.9327 59.8975 62.0625C59.8975 61.1923 60.2679 60.3577 60.9272 59.7423C61.5865 59.127 62.4807 58.7812 63.4131 58.7812Z" fill="white"/>
</g>
<defs>
<clipPath id="clip0_2135_2444">
<rect width="75" height="75" fill="white" transform="translate(0.131836)"/>
</clipPath>
</defs>
</svg>
