<svg width="76" height="75" viewBox="0 0 76 75" fill="none" xmlns="http://www.w3.org/2000/svg">
<g clip-path="url(#clip0_2123_1853)">
<path d="M72.9956 37.1588L72.9803 37.2964V37.4349C72.9803 38.3578 72.187 39.1149 71.3133 39.1149H67.1463H64.6353L64.6463 41.6259L64.7374 62.4761C64.7374 62.4773 64.7374 62.4785 64.7374 62.4797C64.7373 62.7094 64.7201 62.9626 64.6876 63.2548L64.6723 63.3924V63.5309V65.6274C64.6723 67.1245 63.4607 68.3362 61.9636 68.3362H59.8801C59.8037 68.3362 59.7605 68.3361 59.722 68.3352C59.6907 68.3345 59.6778 68.3335 59.6766 68.3334L59.4746 68.3151L59.2722 68.3295C59.1936 68.3351 59.1004 68.3362 58.9034 68.3362H54.6713H51.546C50.0489 68.3362 48.8372 67.1245 48.8372 65.6274V62.5021V54.1681C48.8372 50.4825 45.8558 47.5011 42.1702 47.5011H33.8362C30.1506 47.5011 27.1691 50.4825 27.1691 54.1681V62.5021V65.6274C27.1691 67.1245 25.9575 68.3362 24.4604 68.3362H21.3351H17.1811C17.083 68.3362 16.9708 68.3296 16.7614 68.3157L16.5743 68.3032L16.3875 68.3188C16.2135 68.3333 16.1612 68.3362 16.1263 68.3362H14.0428C12.5457 68.3362 11.334 67.1245 11.334 65.6274V51.0428L11.3342 50.9696C11.3343 50.9501 11.3345 50.9367 11.3348 50.9272L11.3471 50.8167V50.6782V41.6149V39.1149H8.84706H4.66702C3.7089 39.1149 3 38.4163 3 37.4349C3 36.9229 3.13297 36.5355 3.51931 36.1293L36.8332 7.09011L36.8977 7.03386L36.9582 6.97334C37.0992 6.83231 37.218 6.77441 37.3412 6.73744C37.4946 6.69142 37.7067 6.66382 38.0553 6.66382C38.281 6.66382 38.5178 6.6971 38.7304 6.76309C38.9301 6.82506 39.0747 6.90494 39.1724 6.9821L72.3974 36.1873L72.4017 36.1911C72.7286 36.4772 72.876 36.6991 72.94 36.8357C72.9942 36.9513 73.0085 37.043 72.9956 37.1588Z" stroke="white" stroke-width="5"/>
</g>
<defs>
<clipPath id="clip0_2123_1853">
<rect width="75" height="75" fill="white" transform="translate(0.5)"/>
</clipPath>
</defs>
</svg>
