<svg width="76" height="76" viewBox="0 0 76 76" fill="none" xmlns="http://www.w3.org/2000/svg">
<path d="M17.8855 30.8847C18.9122 27.9779 20.579 25.2444 22.9258 22.911C31.2595 14.5772 44.7669 14.5772 53.1007 22.911L55.3808 25.2044H50.8072C48.4471 25.2044 46.5403 27.1112 46.5403 29.4713C46.5403 31.8314 48.4471 33.7382 50.8072 33.7382H65.6747H65.728C68.0881 33.7382 69.9949 31.8314 69.9949 29.4713V14.5372C69.9949 12.1771 68.0881 10.2703 65.728 10.2703C63.3679 10.2703 61.4611 12.1771 61.4611 14.5372V19.2308L59.1277 16.884C47.4604 5.21673 28.5527 5.21673 16.8854 16.884C13.6319 20.1375 11.2852 23.9644 9.84508 28.0579C9.05838 30.2847 10.2318 32.7115 12.4452 33.4982C14.6587 34.2849 17.0988 33.1115 17.8855 30.8981V30.8847ZM9.07171 42.4453C8.40501 42.6453 7.76497 43.0054 7.24495 43.5387C6.71159 44.0721 6.35157 44.7121 6.16489 45.4055C6.12489 45.5655 6.08489 45.7388 6.05822 45.9122C6.01822 46.1388 6.00488 46.3655 6.00488 46.5922V61.473C6.00488 63.8331 7.91165 65.7399 10.2718 65.7399C12.6319 65.7399 14.5387 63.8331 14.5387 61.473V56.7927L16.8854 59.1262C28.5527 70.7801 47.4604 70.7801 59.1143 59.1262C62.3678 55.8727 64.7279 52.0458 66.168 47.9656C66.9547 45.7388 65.7813 43.312 63.5679 42.5253C61.3544 41.7386 58.9143 42.912 58.1276 45.1255C57.1009 48.0323 55.4341 50.7658 53.0873 53.0992C44.7536 61.433 31.2462 61.433 22.9124 53.0992L22.8991 53.0859L20.619 50.8058H25.2059C27.566 50.8058 29.4728 48.899 29.4728 46.5389C29.4728 44.1787 27.566 42.272 25.2059 42.272H10.3251C10.1118 42.272 9.89842 42.2853 9.68507 42.312C9.47173 42.3387 9.27172 42.3787 9.07171 42.4453Z" fill="white"/>
</svg>
