<svg width="76" height="75" viewBox="0 0 76 75" fill="none" xmlns="http://www.w3.org/2000/svg">
<g clip-path="url(#clip0_2135_2442)">
<path d="M0.131836 60.9375C0.131836 63.5303 2.22656 65.625 4.81934 65.625H12.832C14.6338 69.7705 18.7646 72.6562 23.5693 72.6562C28.374 72.6562 32.5049 69.7705 34.3066 65.625H70.4443C73.0371 65.625 75.1318 63.5303 75.1318 60.9375C75.1318 58.3447 73.0371 56.25 70.4443 56.25H34.3066C32.5049 52.1045 28.374 49.2188 23.5693 49.2188C18.7646 49.2188 14.6338 52.1045 12.832 56.25H4.81934C2.22656 56.25 0.131836 58.3447 0.131836 60.9375ZM18.8818 60.9375C18.8818 59.6943 19.3757 58.502 20.2548 57.6229C21.1339 56.7439 22.3261 56.25 23.5693 56.25C24.8125 56.25 26.0048 56.7439 26.8839 57.6229C27.763 58.502 28.2568 59.6943 28.2568 60.9375C28.2568 62.1807 27.763 63.373 26.8839 64.2521C26.0048 65.1311 24.8125 65.625 23.5693 65.625C22.3261 65.625 21.1339 65.1311 20.2548 64.2521C19.3757 63.373 18.8818 62.1807 18.8818 60.9375ZM47.0068 37.5C47.0068 36.2568 47.5007 35.0645 48.3798 34.1854C49.2589 33.3064 50.4511 32.8125 51.6943 32.8125C52.9375 32.8125 54.1298 33.3064 55.0089 34.1854C55.888 35.0645 56.3818 36.2568 56.3818 37.5C56.3818 38.7432 55.888 39.9355 55.0089 40.8146C54.1298 41.6936 52.9375 42.1875 51.6943 42.1875C50.4511 42.1875 49.2589 41.6936 48.3798 40.8146C47.5007 39.9355 47.0068 38.7432 47.0068 37.5ZM51.6943 25.7812C46.8896 25.7812 42.7588 28.667 40.957 32.8125H4.81934C2.22656 32.8125 0.131836 34.9072 0.131836 37.5C0.131836 40.0928 2.22656 42.1875 4.81934 42.1875H40.957C42.7588 46.333 46.8896 49.2188 51.6943 49.2188C56.499 49.2188 60.6299 46.333 62.4316 42.1875H70.4443C73.0371 42.1875 75.1318 40.0928 75.1318 37.5C75.1318 34.9072 73.0371 32.8125 70.4443 32.8125H62.4316C60.6299 28.667 56.499 25.7812 51.6943 25.7812ZM28.2568 18.75C27.0136 18.75 25.8214 18.2561 24.9423 17.3771C24.0632 16.498 23.5693 15.3057 23.5693 14.0625C23.5693 12.8193 24.0632 11.627 24.9423 10.7479C25.8214 9.86886 27.0136 9.375 28.2568 9.375C29.5 9.375 30.6923 9.86886 31.5714 10.7479C32.4505 11.627 32.9443 12.8193 32.9443 14.0625C32.9443 15.3057 32.4505 16.498 31.5714 17.3771C30.6923 18.2561 29.5 18.75 28.2568 18.75ZM38.9941 9.375C37.1924 5.22949 33.0615 2.34375 28.2568 2.34375C23.4521 2.34375 19.3213 5.22949 17.5195 9.375H4.81934C2.22656 9.375 0.131836 11.4697 0.131836 14.0625C0.131836 16.6553 2.22656 18.75 4.81934 18.75H17.5195C19.3213 22.8955 23.4521 25.7812 28.2568 25.7812C33.0615 25.7812 37.1924 22.8955 38.9941 18.75H70.4443C73.0371 18.75 75.1318 16.6553 75.1318 14.0625C75.1318 11.4697 73.0371 9.375 70.4443 9.375H38.9941Z" fill="white"/>
</g>
<defs>
<clipPath id="clip0_2135_2442">
<rect width="75" height="75" fill="white" transform="translate(0.131836)"/>
</clipPath>
</defs>
</svg>
