<svg width="75" height="76" viewBox="0 0 75 75" fill="none" xmlns="http://www.w3.org/2000/svg">
<path d="M38.8776 5.24546L38.8821 5.25463L48.0146 24.0452L48.7073 25.4705L50.275 25.7017L70.6775 28.7117C70.6785 28.7118 70.6795 28.712 70.6805 28.7121C71.257 28.7997 71.7375 29.2031 71.9242 29.7682C72.1039 30.3119 71.9582 30.9261 71.5418 31.3376L71.5407 31.3388L56.7411 45.9821L55.6327 47.0788L55.8934 48.6161L59.4001 69.3017C59.4003 69.3025 59.4004 69.3034 59.4005 69.3042C59.4945 69.8741 59.2595 70.4664 58.7626 70.8278C58.3045 71.161 57.6761 71.215 57.1318 70.9302C57.1301 70.9293 57.1285 70.9284 57.1268 70.9275L38.9169 61.2052L37.504 60.4508L36.0911 61.2052L17.8812 70.9275C17.8796 70.9284 17.878 70.9292 17.8763 70.9301C17.3483 71.2064 16.7094 71.1604 16.2293 70.8161C15.7583 70.4783 15.5114 69.8861 15.6075 69.3041C15.6076 69.3033 15.6078 69.3025 15.6079 69.3016L19.1008 48.6141L19.3602 47.0779L18.2527 45.9821L3.45313 31.3388L3.45198 31.3376C3.04964 30.94 2.89159 30.3217 3.07689 29.7458C3.24762 29.2151 3.72055 28.8021 4.31344 28.7121C4.31438 28.712 4.31532 28.7118 4.31626 28.7117L24.7049 25.7017L26.2724 25.4703L26.965 24.0452L36.0923 5.26528C36.093 5.26389 36.0937 5.2625 36.0944 5.26111C36.363 4.71777 36.9003 4.38672 37.4898 4.38672C38.0955 4.38672 38.6297 4.73085 38.8776 5.24546Z" stroke="white" stroke-width="6"/>
</svg>
