<svg width="75" height="71" viewBox="0 0 75 71" fill="none" xmlns="http://www.w3.org/2000/svg">
<g clip-path="url(#clip0_2071_945)">
<path d="M13.0977 11.7889H31.0915C32.1831 11.7889 33.0562 10.8845 33.0562 9.76183C33.0562 8.63916 32.1831 7.70361 31.0915 7.70361H13.0977C11.975 7.70361 11.133 8.63916 11.133 9.76183C11.133 10.8845 11.975 11.7889 13.0977 11.7889ZM1.93347 27.4125H23.2952C24.4179 27.4125 25.2599 26.5082 25.2599 25.3855C25.2599 24.2629 24.4179 23.3273 23.2952 23.3273H1.93347C0.841995 23.3273 0 24.2941 0 25.3855C0 26.477 0.841995 27.4125 1.93347 27.4125ZM11.2578 43.0362H23.1393C24.2308 43.0362 25.0728 42.1319 25.0728 41.0092C25.0728 39.8865 24.2308 38.9511 23.1393 38.9511H11.2578C10.1351 38.9511 9.29314 39.8865 9.29314 41.0092C9.29314 42.1319 10.1351 43.0362 11.2578 43.0362ZM3.05614 58.4728H19.3347C20.4262 58.4728 21.2682 57.5686 21.2682 56.4459C21.2682 55.3231 20.4262 54.3877 19.3347 54.3877H3.05614C1.96466 54.3877 1.12266 55.3231 1.12266 56.4459C1.12266 57.5686 1.96466 58.4728 3.05614 58.4728Z" fill="white"/>
<path d="M37.2971 67.5479L46.6525 56.3837C47.5882 55.2921 47.713 55.0425 48.0871 53.8886L48.7732 51.7682L43.7524 45.4688L42.2244 52.5165L32.9935 63.4937C30.0623 67.0175 34.8648 70.448 37.2971 67.5479ZM60.0933 66.6122C62.0269 70.5102 67.7962 68.1091 65.7067 63.8678L59.345 50.9885C58.8461 50.0217 58.16 48.9615 57.5674 48.1196L53.5446 42.4128L53.8253 41.5705C54.8855 38.3274 55.3222 36.3938 55.5404 33.1819L56.1642 24.1694C56.4761 19.897 53.9498 16.6538 49.584 16.6538C46.2784 16.6538 44.0643 18.3066 41.0083 21.2692L36.268 25.9781C34.7089 27.5062 34.2099 28.7535 34.054 30.7807L33.4613 38.1403C33.3054 40.0114 34.3345 41.3212 36.0809 41.3835C37.8272 41.5083 38.8876 40.4792 39.0436 38.4834L39.7296 30.4063L42.0062 28.3482C42.8482 27.5996 43.9395 28.0986 43.8772 28.9406L43.3783 35.7703C43.0975 39.2317 43.9084 40.8845 46.2784 43.8471L52.6089 51.7682C53.2327 52.5791 53.3263 52.8907 53.5757 53.3899L60.0933 66.6122ZM70.9459 28.816H63.7731L59.2202 23.7952L58.6901 31.3108L60.4989 33.1196C61.4968 34.1175 62.401 34.4294 64.2409 34.4294H70.9459C72.8481 34.4294 74.0642 33.3689 74.0642 31.6227C74.0642 29.9385 72.8169 28.816 70.9459 28.816ZM53.0456 13.8472C56.8191 13.8472 59.844 10.791 59.844 7.04883C59.844 3.27544 56.8191 0.250488 53.0456 0.250488C49.2721 0.250488 46.2472 3.27544 46.2472 7.04883C46.2472 10.791 49.2721 13.8472 53.0456 13.8472Z" fill="white"/>
</g>
<defs>
<clipPath id="clip0_2071_945">
<rect width="75" height="70.1975" fill="white" transform="translate(0 0.250488)"/>
</clipPath>
</defs>
</svg>
