<svg width="66" height="76" viewBox="0 0 66 76" fill="none" xmlns="http://www.w3.org/2000/svg">
<g clip-path="url(#clip0_2071_935)">
<path d="M35.607 23.2005C35.607 24.3552 36.5517 25.3261 37.7062 25.3261C38.8609 25.3261 39.8317 24.3552 39.8317 23.2005V16.8769C39.8317 15.5387 38.9395 14.5679 37.68 14.5679C23.0909 14.5679 10.9683 26.7168 10.9683 41.3321C10.9683 48.2068 13.6447 54.5305 18.0004 59.2798C19.155 60.5655 21.1754 60.8806 22.7234 59.3325L26.4495 55.6588C27.263 54.8455 27.2368 53.481 26.4495 52.6675C25.6099 51.8541 24.2716 51.8541 23.4583 52.6675L20.5719 55.554C17.3707 51.6967 15.4552 46.7899 15.4552 41.3321C15.4552 29.6818 24.2454 20.1831 35.607 19.1335V23.2005ZM19.6273 39.2329H13.2248V43.4575H19.6273C20.7818 43.4575 21.7264 42.4866 21.7264 41.3321C21.7264 40.1776 20.7818 39.2329 19.6273 39.2329ZM54.9192 27.1891L58.6453 24.7751C54.7356 19.9207 49.2778 16.5621 43.1904 15.2239C43.3216 15.7486 43.4002 16.2997 43.4002 16.8769V19.8158C47.9133 20.9965 51.9542 23.5418 54.9192 27.1891ZM59.931 43.5101L64.2343 44.4283C64.5754 41.5945 64.4706 38.6819 63.8669 35.7693C63.2111 32.8831 62.109 30.1541 60.6395 27.7139L56.9398 30.1541C58.0681 32.122 58.934 34.2738 59.4588 36.5827C59.9836 38.9181 60.1149 41.2533 59.931 43.5101ZM57.4908 59.2274C59.2752 57.2595 62.109 53.481 63.5259 47.9182L59.2488 46.9999C58.1731 51.2506 56.2314 54.0583 54.9192 55.6064L51.9804 52.6675C51.1672 51.8541 49.8027 51.8541 48.9892 52.6675C48.1757 53.481 48.1757 54.8455 48.9892 55.6588L52.6627 59.306C54.2372 60.8806 56.2838 60.5655 57.4908 59.2274Z" fill="white"/>
<path d="M41.0647 44.6907C42.7704 42.959 42.7704 40.4924 41.0647 38.7607C40.7499 38.4457 40.0414 37.9472 39.6478 37.6586L26.8954 28.816C26.2658 28.3697 25.6621 28.5009 25.2687 28.8684C24.8751 29.2882 24.7701 29.8916 25.1899 30.5215L34.0326 43.2476C34.3212 43.6675 34.8198 44.3497 35.1346 44.6907C36.8664 46.3963 39.333 46.3963 41.0647 44.6907Z" fill="white"/>
<path d="M35.6068 1.73683V10.5008C35.6068 11.7865 36.5777 12.4163 37.811 11.6291L44.3709 7.35206C45.3942 6.66985 45.3942 5.64652 44.3709 4.96429L37.811 0.608532C36.5777 -0.20489 35.6068 0.451097 35.6068 1.73683ZM0 40.8073C0 51.6967 4.72311 61.4579 12.2013 68.149L15.0352 65.3414C8.3179 59.4899 4.22455 50.8309 4.22455 40.8073C4.22455 21.81 18.2102 7.85062 36.6565 7.85062V3.62607C16.3997 3.62607 0 20.0257 0 40.8073ZM14.1955 61.8777L7.97679 68.0701C7.03216 68.9622 7.29456 70.1431 8.73773 70.4317L16.3997 72.0587C17.6329 72.2947 18.3676 71.56 18.1052 70.3529L16.5571 62.6647C16.2684 61.1954 15.1139 60.9592 14.1955 61.8777Z" fill="white"/>
</g>
<defs>
<clipPath id="clip0_2071_935">
<rect width="65.2837" height="75" fill="white" transform="translate(0 0.250488)"/>
</clipPath>
</defs>
</svg>
