<svg width="73" height="76" viewBox="0 0 73 76" fill="none" xmlns="http://www.w3.org/2000/svg">
<g clip-path="url(#clip0_2071_924)">
<path d="M54.4684 8.71868H17.0967C17.2182 6.31228 18.7369 4.92871 21.2593 4.92871H50.306C52.8283 4.92871 54.3468 6.31228 54.4684 8.71868Z" fill="white"/>
<path d="M60.5256 17.1766C59.5733 17.0252 58.5631 16.9501 57.5012 16.9501H14.0646C13.0029 16.9501 11.993 17.0251 11.041 17.1765C11.3634 14.3319 13.2883 12.7456 16.4333 12.7456H55.162C58.3072 12.7456 60.2077 14.3319 60.5256 17.1766Z" fill="white"/>
<path d="M14.4789 69.6546H57.1457C62.7122 69.6546 65.6436 66.8122 65.6436 61.2455V59.2024L50.8685 45.227C49.6544 44.0723 48.115 43.5096 46.5752 43.5096C44.9764 43.5096 43.5847 44.013 42.2819 45.1975L29.3723 56.5674L24.2499 51.978C23.0359 50.8824 21.7627 50.3197 20.3711 50.3197C19.0979 50.3197 17.9432 50.912 16.7292 51.9481L5.98107 61.2455C5.98107 66.8122 8.91236 69.6546 14.4789 69.6546ZM14.0644 70.4836H57.501C63.6892 70.4836 66.7983 67.4042 66.7983 61.3048V30.8961C66.7983 24.7966 63.6892 21.7173 57.501 21.7173H14.0644C7.87605 21.7173 4.76709 24.7966 4.76709 30.8961V61.3048C4.76709 67.4042 7.87605 70.4836 14.0644 70.4836ZM14.1532 65.7166C11.1923 65.7166 9.53417 64.1175 9.53417 61.0383V31.1627C9.53417 28.0832 11.1923 26.4843 14.1532 26.4843H57.4418C60.3434 26.4843 62.0312 28.0832 62.0312 31.1627V61.0383C62.0312 64.1175 60.3434 65.7166 57.4418 65.7166H14.1532Z" fill="white"/>
<path d="M27.0926 45.9375C30.8232 45.9375 33.8433 42.8287 33.8433 39.1274C33.8433 35.4264 30.8232 32.3765 27.0926 32.3765C23.3322 32.3765 20.312 35.4264 20.312 39.1274C20.312 42.8287 23.3322 45.9375 27.0926 45.9375Z" fill="white"/>
</g>
<defs>
<clipPath id="clip0_2071_924">
<rect width="72.4537" height="75" fill="white" transform="translate(0 0.250488)"/>
</clipPath>
</defs>
</svg>
