<svg width="1440" height="47" viewBox="0 0 1440 47" fill="none" xmlns="http://www.w3.org/2000/svg">
<g style="mix-blend-mode:luminosity">
<mask id="mask0_2024_281" style="mask-type:alpha" maskUnits="userSpaceOnUse" x="0" y="-1" width="1440" height="48">
<rect width="1440" height="47" transform="matrix(-1 0 0 1 1440 -0.00512695)" fill="url(#paint0_linear_2024_281)"/>
</mask>
<g mask="url(#mask0_2024_281)">
<path d="M300.058 13.687C342.488 12.5517 377.071 11.54 407.393 10.6529C513.566 7.54692 567.484 5.96959 723.051 5.96959C840.078 5.96959 905.279 4.67323 972.369 3.33932C1019.93 2.39361 1068.45 1.42902 1137.05 0.894135C1302.27 -0.393965 1401.72 0.511671 1480.8 1.88452L1480.8 26.6212L1480.8 40.7876L1480.8 45.3193L1480.8 46.5759L1480.8 46.7684L-40.8003 46.7684L-40.8003 15.0143L-40.6199 15.0187C-40.33 15.0257 -39.8968 15.036 -39.3237 15.0493C-38.1775 15.0758 -36.4717 15.114 -34.2328 15.1608C-29.755 15.2545 -23.1452 15.3826 -14.6166 15.5203C2.44064 15.7957 27.173 16.1097 57.8742 16.2639C119.277 16.5725 204.555 16.2422 300.058 13.687Z" fill="url(#paint1_linear_2024_281)" fill-opacity="0.8" stroke="url(#paint2_linear_2024_281)" stroke-width="0.5"/>
</g>
</g>
<defs>
<linearGradient id="paint0_linear_2024_281" x1="1440" y1="25.0605" x2="1.31473" y2="-18.4752" gradientUnits="userSpaceOnUse">
<stop stop-color="#D9D9D9" stop-opacity="0"/>
<stop offset="0.31107" stop-color="#D9D9D9"/>
<stop offset="0.720793" stop-color="#D9D9D9"/>
<stop offset="1" stop-color="#D9D9D9" stop-opacity="0"/>
</linearGradient>
<linearGradient id="paint1_linear_2024_281" x1="680.336" y1="0.0231935" x2="680.336" y2="32.6433" gradientUnits="userSpaceOnUse">
<stop stop-color="#333333"/>
<stop offset="1" stop-color="#D9D9D9" stop-opacity="0"/>
</linearGradient>
<linearGradient id="paint2_linear_2024_281" x1="1452.51" y1="6.8794" x2="1452.34" y2="-4.24249" gradientUnits="userSpaceOnUse">
<stop stop-color="white" stop-opacity="0"/>
<stop offset="0.0712291" stop-color="white" stop-opacity="0.333333"/>
<stop offset="0.213687" stop-color="white"/>
<stop offset="0.559457" stop-color="white"/>
<stop offset="0.560842" stop-color="white" stop-opacity="0.2"/>
<stop offset="0.674355" stop-color="white"/>
<stop offset="0.675308" stop-color="white" stop-opacity="0.2"/>
<stop offset="0.797571" stop-color="white"/>
<stop offset="0.799292" stop-color="white" stop-opacity="0"/>
<stop offset="0.909727" stop-color="white" stop-opacity="0.550228"/>
<stop offset="1" stop-color="white" stop-opacity="0"/>
</linearGradient>
</defs>
</svg>
